STARTFONT 2.1
FONT -FontForge-Magic Forest-Book-R-Normal--12-120-75-75-P-75-ISO10646-1
SIZE 12 75 75
FONTBOUNDINGBOX 11 12 0 -3
COMMENT "Generated by fontforge, http://fontforge.sourceforge.net"
COMMENT "Typeface (c) Auntie Pixelante. 2010. All Rights Reserved. www.auntiepixelante.com"
STARTPROPERTIES 38
FOUNDRY "FontForge"
FAMILY_NAME "Magic Forest"
WEIGHT_NAME "Book"
SLANT "R"
SETWIDTH_NAME "Normal"
ADD_STYLE_NAME ""
PIXEL_SIZE 12
POINT_SIZE 120
RESOLUTION_X 75
RESOLUTION_Y 75
SPACING "P"
AVERAGE_WIDTH 75
CHARSET_REGISTRY "ISO10646"
CHARSET_ENCODING "1"
FONTNAME_REGISTRY ""
CHARSET_COLLECTIONS "ISO10646-1"
FONT_NAME "MagicForest"
FACE_NAME "Magic Forest"
COPYRIGHT "Typeface (c) Auntie Pixelante. 2010. All Rights Reserved. www.auntiepixelante.com"
FONT_VERSION "1.00 June 17, 2011, initial release"
FONT_ASCENT 10
FONT_DESCENT 2
UNDERLINE_POSITION -2
UNDERLINE_THICKNESS 1
X_HEIGHT 7
CAP_HEIGHT 8
RAW_ASCENT 799
RAW_DESCENT 200
RELATIVE_WEIGHT 40
RELATIVE_SETWIDTH 50
SUPERSCRIPT_X 0
SUPERSCRIPT_Y 5
SUPERSCRIPT_SIZE 7
SUBSCRIPT_X 0
SUBSCRIPT_Y 1
SUBSCRIPT_SIZE 7
AVG_LOWERCASE_WIDTH 79
AVG_UPPERCASE_WIDTH 84
ENDPROPERTIES
CHARS 100
STARTCHAR exclam
ENCODING 33
SWIDTH 500 0
DWIDTH 6 0
BBX 5 9 0 0
BITMAP
18
18
18
60
60
60
00
C0
C0
ENDCHAR
STARTCHAR quotedbl
ENCODING 34
SWIDTH 500 0
DWIDTH 6 0
BBX 5 3 0 6
BITMAP
D8
D8
D8
ENDCHAR
STARTCHAR numbersign
ENCODING 35
SWIDTH 750 0
DWIDTH 9 0
BBX 8 11 0 -2
BITMAP
0C
6F
6F
7C
FF
EF
7C
FC
EC
60
60
ENDCHAR
STARTCHAR dollar
ENCODING 36
SWIDTH 625 0
DWIDTH 8 0
BBX 6 11 0 -2
BITMAP
18
7C
7C
D8
FC
FC
6C
FC
F8
60
60
ENDCHAR
STARTCHAR percent
ENCODING 37
SWIDTH 500 0
DWIDTH 6 0
BBX 5 8 0 0
BITMAP
C0
C0
18
78
60
C0
D8
18
ENDCHAR
STARTCHAR ampersand
ENCODING 38
SWIDTH 750 0
DWIDTH 9 0
BBX 8 9 0 0
BITMAP
60
F0
D0
7B
FF
CC
CC
FF
7B
ENDCHAR
STARTCHAR quotesingle
ENCODING 39
SWIDTH 250 0
DWIDTH 3 0
BBX 2 3 0 6
BITMAP
C0
C0
C0
ENDCHAR
STARTCHAR parenleft
ENCODING 40
SWIDTH 375 0
DWIDTH 5 0
BBX 3 9 0 0
BITMAP
60
E0
C0
C0
C0
C0
C0
E0
60
ENDCHAR
STARTCHAR parenright
ENCODING 41
SWIDTH 375 0
DWIDTH 5 0
BBX 3 9 0 0
BITMAP
C0
E0
60
60
60
60
60
E0
C0
ENDCHAR
STARTCHAR asterisk
ENCODING 42
SWIDTH 750 0
DWIDTH 9 0
BBX 8 8 0 0
BITMAP
18
18
DB
FF
7C
DB
DB
18
ENDCHAR
STARTCHAR plus
ENCODING 43
SWIDTH 500 0
DWIDTH 6 0
BBX 5 5 0 1
BITMAP
60
F8
F8
60
60
ENDCHAR
STARTCHAR comma
ENCODING 44
SWIDTH 375 0
DWIDTH 5 0
BBX 3 5 0 -3
BITMAP
60
60
60
E0
C0
ENDCHAR
STARTCHAR hyphen
ENCODING 45
SWIDTH 625 0
DWIDTH 8 0
BBX 6 2 0 3
BITMAP
FC
FC
ENDCHAR
STARTCHAR period
ENCODING 46
SWIDTH 250 0
DWIDTH 3 0
BBX 2 2 0 0
BITMAP
C0
C0
ENDCHAR
STARTCHAR slash
ENCODING 47
SWIDTH 500 0
DWIDTH 6 0
BBX 5 9 0 0
BITMAP
18
18
18
60
60
60
C0
C0
C0
ENDCHAR
STARTCHAR zero
ENCODING 48
SWIDTH 625 0
DWIDTH 8 0
BBX 6 9 0 0
BITMAP
78
FC
CC
CC
CC
CC
CC
FC
78
ENDCHAR
STARTCHAR one
ENCODING 49
SWIDTH 500 0
DWIDTH 6 0
BBX 5 9 0 0
BITMAP
60
E0
E0
60
60
60
60
F8
F8
ENDCHAR
STARTCHAR two
ENCODING 50
SWIDTH 625 0
DWIDTH 8 0
BBX 6 9 0 0
BITMAP
78
FC
CC
0C
7C
78
C0
FC
FC
ENDCHAR
STARTCHAR three
ENCODING 51
SWIDTH 625 0
DWIDTH 8 0
BBX 6 9 0 0
BITMAP
78
FC
CC
18
1C
0C
CC
FC
78
ENDCHAR
STARTCHAR four
ENCODING 52
SWIDTH 625 0
DWIDTH 8 0
BBX 6 9 0 0
BITMAP
0C
CC
CC
CC
FC
FC
0C
0C
0C
ENDCHAR
STARTCHAR five
ENCODING 53
SWIDTH 625 0
DWIDTH 8 0
BBX 6 9 0 0
BITMAP
FC
FC
C0
F8
FC
0C
CC
FC
78
ENDCHAR
STARTCHAR six
ENCODING 54
SWIDTH 625 0
DWIDTH 8 0
BBX 6 9 0 0
BITMAP
7C
FC
C0
F8
FC
CC
CC
FC
78
ENDCHAR
STARTCHAR seven
ENCODING 55
SWIDTH 625 0
DWIDTH 8 0
BBX 6 9 0 0
BITMAP
FC
FC
0C
18
78
60
60
60
60
ENDCHAR
STARTCHAR eight
ENCODING 56
SWIDTH 625 0
DWIDTH 8 0
BBX 6 9 0 0
BITMAP
78
FC
CC
78
FC
CC
CC
FC
78
ENDCHAR
STARTCHAR nine
ENCODING 57
SWIDTH 625 0
DWIDTH 8 0
BBX 6 9 0 0
BITMAP
78
FC
CC
CC
FC
7C
0C
7C
78
ENDCHAR
STARTCHAR colon
ENCODING 58
SWIDTH 250 0
DWIDTH 3 0
BBX 2 5 0 1
BITMAP
C0
C0
00
C0
C0
ENDCHAR
STARTCHAR semicolon
ENCODING 59
SWIDTH 375 0
DWIDTH 5 0
BBX 3 8 0 -3
BITMAP
60
60
00
60
60
60
E0
C0
ENDCHAR
STARTCHAR less
ENCODING 60
SWIDTH 500 0
DWIDTH 6 0
BBX 5 8 0 0
BITMAP
18
18
60
E0
C0
60
78
18
ENDCHAR
STARTCHAR equal
ENCODING 61
SWIDTH 500 0
DWIDTH 6 0
BBX 5 5 0 1
BITMAP
F8
F8
00
F8
F8
ENDCHAR
STARTCHAR greater
ENCODING 62
SWIDTH 500 0
DWIDTH 6 0
BBX 5 8 0 0
BITMAP
C0
C0
60
78
18
60
E0
C0
ENDCHAR
STARTCHAR question
ENCODING 63
SWIDTH 625 0
DWIDTH 8 0
BBX 6 9 0 0
BITMAP
78
FC
CC
18
78
60
00
C0
C0
ENDCHAR
STARTCHAR at
ENCODING 64
SWIDTH 875 0
DWIDTH 11 0
BBX 9 9 0 0
BITMAP
7F00
FF80
C180
DD80
FD80
ED80
CD80
FD80
7C00
ENDCHAR
STARTCHAR A
ENCODING 65
SWIDTH 625 0
DWIDTH 8 0
BBX 6 9 0 0
BITMAP
1C
7C
6C
CC
FC
FC
CC
CC
CC
ENDCHAR
STARTCHAR B
ENCODING 66
SWIDTH 625 0
DWIDTH 8 0
BBX 6 9 0 0
BITMAP
F8
F8
D8
FC
FC
CC
CC
FC
F8
ENDCHAR
STARTCHAR C
ENCODING 67
SWIDTH 625 0
DWIDTH 8 0
BBX 6 9 0 0
BITMAP
7C
FC
CC
C0
C0
C0
CC
FC
78
ENDCHAR
STARTCHAR D
ENCODING 68
SWIDTH 625 0
DWIDTH 8 0
BBX 6 9 0 0
BITMAP
E0
F8
D8
CC
CC
CC
CC
FC
F8
ENDCHAR
STARTCHAR E
ENCODING 69
SWIDTH 625 0
DWIDTH 8 0
BBX 6 9 0 0
BITMAP
7C
FC
C0
F8
F8
C0
C0
FC
FC
ENDCHAR
STARTCHAR F
ENCODING 70
SWIDTH 625 0
DWIDTH 8 0
BBX 6 9 0 0
BITMAP
7C
FC
C0
F8
F8
C0
C0
C0
C0
ENDCHAR
STARTCHAR G
ENCODING 71
SWIDTH 625 0
DWIDTH 8 0
BBX 6 9 0 0
BITMAP
7C
FC
C0
DC
DC
CC
CC
FC
7C
ENDCHAR
STARTCHAR H
ENCODING 72
SWIDTH 625 0
DWIDTH 8 0
BBX 6 9 0 0
BITMAP
CC
CC
CC
DC
FC
EC
CC
CC
CC
ENDCHAR
STARTCHAR I
ENCODING 73
SWIDTH 500 0
DWIDTH 6 0
BBX 5 9 0 0
BITMAP
F8
F8
60
60
60
60
60
F8
F8
ENDCHAR
STARTCHAR J
ENCODING 74
SWIDTH 625 0
DWIDTH 8 0
BBX 6 9 0 0
BITMAP
7C
7C
0C
0C
0C
0C
CC
FC
78
ENDCHAR
STARTCHAR K
ENCODING 75
SWIDTH 625 0
DWIDTH 8 0
BBX 6 9 0 0
BITMAP
CC
DC
D8
E0
F8
D8
CC
CC
CC
ENDCHAR
STARTCHAR L
ENCODING 76
SWIDTH 625 0
DWIDTH 8 0
BBX 6 9 0 0
BITMAP
C0
C0
C0
C0
C0
C0
CC
FC
F8
ENDCHAR
STARTCHAR M
ENCODING 77
SWIDTH 1000 0
DWIDTH 12 0
BBX 11 9 0 0
BITMAP
7DE0
FFE0
CF60
CC60
CC60
CC60
CC60
CDE0
C180
ENDCHAR
STARTCHAR N
ENCODING 78
SWIDTH 625 0
DWIDTH 8 0
BBX 6 9 0 0
BITMAP
CC
EC
EC
DC
DC
CC
CC
CC
CC
ENDCHAR
STARTCHAR O
ENCODING 79
SWIDTH 625 0
DWIDTH 8 0
BBX 6 9 0 0
BITMAP
78
FC
CC
CC
CC
CC
CC
FC
78
ENDCHAR
STARTCHAR P
ENCODING 80
SWIDTH 625 0
DWIDTH 8 0
BBX 6 9 0 0
BITMAP
DC
FC
EC
CC
FC
F8
C0
C0
C0
ENDCHAR
STARTCHAR Q
ENCODING 81
SWIDTH 875 0
DWIDTH 11 0
BBX 9 9 0 0
BITMAP
7800
FC00
CC00
CC00
DC00
DC00
CD80
FF80
7B80
ENDCHAR
STARTCHAR R
ENCODING 82
SWIDTH 625 0
DWIDTH 8 0
BBX 6 9 0 0
BITMAP
DC
FC
EC
CC
FC
F8
CC
CC
CC
ENDCHAR
STARTCHAR S
ENCODING 83
SWIDTH 625 0
DWIDTH 8 0
BBX 6 9 0 0
BITMAP
7C
FC
C0
78
7C
0C
CC
FC
78
ENDCHAR
STARTCHAR T
ENCODING 84
SWIDTH 750 0
DWIDTH 9 0
BBX 8 9 0 0
BITMAP
FF
FF
18
18
18
18
18
18
18
ENDCHAR
STARTCHAR U
ENCODING 85
SWIDTH 625 0
DWIDTH 8 0
BBX 6 9 0 0
BITMAP
CC
CC
CC
CC
CC
CC
CC
FC
7C
ENDCHAR
STARTCHAR V
ENCODING 86
SWIDTH 625 0
DWIDTH 8 0
BBX 6 9 0 0
BITMAP
CC
CC
CC
CC
CC
CC
D8
F8
E0
ENDCHAR
STARTCHAR W
ENCODING 87
SWIDTH 1000 0
DWIDTH 12 0
BBX 11 9 0 0
BITMAP
C180
C1E0
C060
CC60
CC60
CC60
DD80
FF80
EF00
ENDCHAR
STARTCHAR X
ENCODING 88
SWIDTH 750 0
DWIDTH 9 0
BBX 8 9 0 0
BITMAP
E3
FB
1B
1C
7C
78
D8
DF
CF
ENDCHAR
STARTCHAR Y
ENCODING 89
SWIDTH 625 0
DWIDTH 8 0
BBX 6 9 0 0
BITMAP
6C
EC
CC
CC
FC
7C
0C
FC
F8
ENDCHAR
STARTCHAR Z
ENCODING 90
SWIDTH 625 0
DWIDTH 8 0
BBX 6 9 0 0
BITMAP
FC
FC
0C
18
78
60
C0
FC
FC
ENDCHAR
STARTCHAR bracketleft
ENCODING 91
SWIDTH 375 0
DWIDTH 5 0
BBX 3 9 0 0
BITMAP
E0
E0
C0
C0
C0
C0
C0
E0
E0
ENDCHAR
STARTCHAR backslash
ENCODING 92
SWIDTH 500 0
DWIDTH 6 0
BBX 5 9 0 0
BITMAP
C0
C0
C0
60
60
60
18
18
18
ENDCHAR
STARTCHAR bracketright
ENCODING 93
SWIDTH 375 0
DWIDTH 5 0
BBX 3 9 0 0
BITMAP
E0
E0
60
60
60
60
60
E0
E0
ENDCHAR
STARTCHAR asciicircum
ENCODING 94
SWIDTH 750 0
DWIDTH 9 0
BBX 8 5 0 4
BITMAP
18
7C
7C
FF
FF
ENDCHAR
STARTCHAR underscore
ENCODING 95
SWIDTH 625 0
DWIDTH 8 0
BBX 6 2 0 0
BITMAP
FC
FC
ENDCHAR
STARTCHAR grave
ENCODING 96
SWIDTH 250 0
DWIDTH 3 0
BBX 2 3 0 6
BITMAP
C0
C0
C0
ENDCHAR
STARTCHAR a
ENCODING 97
SWIDTH 625 0
DWIDTH 8 0
BBX 6 8 0 0
BITMAP
F8
F8
0C
FC
FC
CC
FC
7C
ENDCHAR
STARTCHAR b
ENCODING 98
SWIDTH 625 0
DWIDTH 8 0
BBX 6 9 0 0
BITMAP
C0
DC
DC
EC
EC
CC
CC
FC
F8
ENDCHAR
STARTCHAR c
ENCODING 99
SWIDTH 625 0
DWIDTH 8 0
BBX 6 8 0 0
BITMAP
78
78
CC
CC
C0
CC
FC
78
ENDCHAR
STARTCHAR d
ENCODING 100
SWIDTH 625 0
DWIDTH 8 0
BBX 6 9 0 0
BITMAP
0C
6C
6C
DC
DC
CC
CC
FC
7C
ENDCHAR
STARTCHAR e
ENCODING 101
SWIDTH 625 0
DWIDTH 8 0
BBX 6 8 0 0
BITMAP
78
78
CC
FC
FC
C0
FC
7C
ENDCHAR
STARTCHAR f
ENCODING 102
SWIDTH 625 0
DWIDTH 8 0
BBX 6 9 0 0
BITMAP
1C
7C
60
F8
F8
60
60
60
60
ENDCHAR
STARTCHAR g
ENCODING 103
SWIDTH 625 0
DWIDTH 8 0
BBX 6 11 0 -3
BITMAP
7C
7C
CC
CC
CC
CC
FC
7C
0C
7C
78
ENDCHAR
STARTCHAR h
ENCODING 104
SWIDTH 625 0
DWIDTH 8 0
BBX 6 9 0 0
BITMAP
C0
DC
DC
EC
EC
CC
CC
CC
CC
ENDCHAR
STARTCHAR i
ENCODING 105
SWIDTH 250 0
DWIDTH 3 0
BBX 2 9 0 0
BITMAP
C0
C0
00
C0
C0
C0
C0
C0
C0
ENDCHAR
STARTCHAR j
ENCODING 106
SWIDTH 375 0
DWIDTH 5 0
BBX 3 12 0 -3
BITMAP
60
60
00
60
60
60
60
60
60
60
E0
C0
ENDCHAR
STARTCHAR k
ENCODING 107
SWIDTH 625 0
DWIDTH 8 0
BBX 6 9 0 0
BITMAP
C0
CC
CC
F8
FC
CC
CC
CC
CC
ENDCHAR
STARTCHAR l
ENCODING 108
SWIDTH 375 0
DWIDTH 5 0
BBX 3 9 0 0
BITMAP
C0
C0
C0
C0
C0
C0
C0
E0
60
ENDCHAR
STARTCHAR m
ENCODING 109
SWIDTH 1000 0
DWIDTH 12 0
BBX 11 8 0 0
BITMAP
DDE0
DDE0
EF60
EF60
CC60
CC60
CC60
CC60
ENDCHAR
STARTCHAR n
ENCODING 110
SWIDTH 625 0
DWIDTH 8 0
BBX 6 8 0 0
BITMAP
DC
DC
EC
EC
CC
CC
CC
CC
ENDCHAR
STARTCHAR o
ENCODING 111
SWIDTH 625 0
DWIDTH 8 0
BBX 6 8 0 0
BITMAP
78
78
CC
CC
CC
CC
FC
78
ENDCHAR
STARTCHAR p
ENCODING 112
SWIDTH 625 0
DWIDTH 8 0
BBX 6 11 0 -3
BITMAP
DC
DC
EC
EC
CC
CC
FC
F8
C0
C0
C0
ENDCHAR
STARTCHAR q
ENCODING 113
SWIDTH 625 0
DWIDTH 8 0
BBX 6 11 0 -3
BITMAP
7C
7C
CC
CC
CC
CC
FC
7C
0C
0C
0C
ENDCHAR
STARTCHAR r
ENCODING 114
SWIDTH 625 0
DWIDTH 8 0
BBX 6 8 0 0
BITMAP
DC
DC
E0
E0
C0
C0
C0
C0
ENDCHAR
STARTCHAR s
ENCODING 115
SWIDTH 625 0
DWIDTH 8 0
BBX 6 8 0 0
BITMAP
7C
7C
C0
F8
78
0C
FC
F8
ENDCHAR
STARTCHAR t
ENCODING 116
SWIDTH 625 0
DWIDTH 8 0
BBX 6 9 0 0
BITMAP
60
FC
FC
60
60
60
60
7C
1C
ENDCHAR
STARTCHAR u
ENCODING 117
SWIDTH 625 0
DWIDTH 8 0
BBX 6 8 0 0
BITMAP
CC
CC
CC
CC
CC
CC
FC
7C
ENDCHAR
STARTCHAR v
ENCODING 118
SWIDTH 625 0
DWIDTH 8 0
BBX 6 8 0 0
BITMAP
CC
CC
CC
CC
CC
D8
F8
E0
ENDCHAR
STARTCHAR w
ENCODING 119
SWIDTH 1000 0
DWIDTH 12 0
BBX 11 8 0 0
BITMAP
C060
C060
CC60
CC60
CC60
DD80
FF80
EF00
ENDCHAR
STARTCHAR x
ENCODING 120
SWIDTH 750 0
DWIDTH 9 0
BBX 8 8 0 0
BITMAP
E3
E3
1B
7F
7C
D8
DF
CF
ENDCHAR
STARTCHAR y
ENCODING 121
SWIDTH 625 0
DWIDTH 8 0
BBX 6 11 0 -3
BITMAP
6C
6C
CC
CC
CC
CC
FC
7C
0C
7C
78
ENDCHAR
STARTCHAR z
ENCODING 122
SWIDTH 625 0
DWIDTH 8 0
BBX 6 8 0 0
BITMAP
FC
FC
0C
7C
78
C0
FC
FC
ENDCHAR
STARTCHAR braceleft
ENCODING 123
SWIDTH 500 0
DWIDTH 6 0
BBX 5 11 0 -2
BITMAP
18
78
60
60
E0
C0
60
60
60
18
18
ENDCHAR
STARTCHAR bar
ENCODING 124
SWIDTH 250 0
DWIDTH 3 0
BBX 2 9 0 0
BITMAP
C0
C0
C0
C0
C0
C0
C0
C0
C0
ENDCHAR
STARTCHAR braceright
ENCODING 125
SWIDTH 500 0
DWIDTH 6 0
BBX 5 11 0 -2
BITMAP
C0
E0
60
60
78
18
60
60
60
C0
C0
ENDCHAR
STARTCHAR asciitilde
ENCODING 126
SWIDTH 875 0
DWIDTH 11 0
BBX 9 3 0 3
BITMAP
7980
FF80
CF00
ENDCHAR
STARTCHAR sterling
ENCODING 163
SWIDTH 750 0
DWIDTH 9 0
BBX 8 11 0 -2
BITMAP
1C
7F
63
60
F8
F8
60
60
60
DF
DF
ENDCHAR
STARTCHAR yen
ENCODING 165
SWIDTH 750 0
DWIDTH 9 0
BBX 8 11 0 -2
BITMAP
C3
EF
6C
18
FF
FF
18
FF
FF
18
18
ENDCHAR
STARTCHAR brokenbar
ENCODING 166
SWIDTH 250 0
DWIDTH 3 0
BBX 2 8 0 0
BITMAP
C0
C0
C0
C0
00
C0
C0
C0
ENDCHAR
STARTCHAR guillemotleft
ENCODING 171
SWIDTH 875 0
DWIDTH 11 0
BBX 9 8 0 0
BITMAP
1980
1980
6300
EF00
CC00
6300
7B80
1980
ENDCHAR
STARTCHAR hyphen.dup1
ENCODING 173
SWIDTH 625 0
DWIDTH 8 0
BBX 6 2 0 3
BITMAP
FC
FC
ENDCHAR
STARTCHAR guillemotright
ENCODING 187
SWIDTH 875 0
DWIDTH 11 0
BBX 9 8 0 0
BITMAP
CC00
CC00
6300
7B80
1980
6300
EF00
CC00
ENDCHAR
ENDFONT
